<?xml version="1.0" encoding="UTF-8" standalone="no"?>
<svg
   xmlns:dc="http://purl.org/dc/elements/1.1/"
   xmlns:cc="http://creativecommons.org/ns#"
   xmlns:rdf="http://www.w3.org/1999/02/22-rdf-syntax-ns#"
   xmlns:svg="http://www.w3.org/2000/svg"
   xmlns="http://www.w3.org/2000/svg"
   viewBox="0 0 377.95334 377.95334"
   height="377.95334"
   width="377.95334"
   xml:space="preserve"
   id="svg2"
   version="1.1"><metadata
     id="metadata8"><rdf:RDF><cc:Work
         rdf:about=""><dc:format>image/svg+xml</dc:format><dc:type
           rdf:resource="http://purl.org/dc/dcmitype/StillImage" /></cc:Work></rdf:RDF></metadata><defs
     id="defs6"><clipPath
       id="clipPath18"
       clipPathUnits="userSpaceOnUse"><path
         id="path16"
         d="M 0,283.465 H 283.465 V 0 H 0 Z" /></clipPath></defs><g
     transform="matrix(1.3333333,0,0,-1.3333333,0,377.95333)"
     id="g10"><g
       id="g12"><g
         clip-path="url(#clipPath18)"
         id="g14"><g
           transform="translate(271.1753,141.8357)"
           id="g20"><path
             id="path22"
             style="fill:#ffffff;fill-opacity:1;fill-rule:nonzero;stroke:none"
             d="m 0,0 c 0,-71.542 -57.997,-129.539 -129.539,-129.539 -71.543,0 -129.539,57.997 -129.539,129.539 0,71.542 57.996,129.539 129.539,129.539 C -57.997,129.539 0,71.542 0,0" /></g><g
           transform="translate(133.5376,271.1394)"
           id="g24"><path
             id="path26"
             style="fill:#4749a6;fill-opacity:1;fill-rule:nonzero;stroke:none"
             d="m 0,0 c -15.778,-1.03 -31.396,-4.852 -45.756,-11.488 -22.771,-10.366 -42.349,-27.559 -55.7,-48.71 -13.506,-21.24 -20.524,-46.515 -19.952,-71.678 0.334,-19.197 5.039,-38.314 13.671,-55.466 13.072,-26.162 35.272,-47.639 61.883,-59.775 14.653,-6.751 30.596,-10.687 46.701,-11.546 30.284,-1.834 61.09,7.518 85.227,25.905 23.925,17.958 41.321,44.438 48.1,73.592 3.882,16.374 4.484,33.504 1.89,50.124 -2.571,16.247 -8.238,32.018 -16.73,46.107 C 104.799,-38.508 81.998,-19.099 55.521,-8.744 37.952,-1.771 18.849,1.123 0,0 m -3.792,4.893 c 2.18,0.202 4.365,0.43 6.559,0.314 C 8.625,5.012 14.511,5.521 20.347,4.851 40.272,3.1 59.772,-3.227 76.94,-13.492 c 25.366,-15.014 45.539,-38.609 56.38,-66.026 12.126,-30.182 12.672,-64.798 1.617,-95.382 -5.128,-14.206 -12.634,-27.551 -22.172,-39.265 -18.085,-22.388 -43.525,-38.753 -71.455,-45.758 -8.692,-2.25 -17.624,-3.537 -26.586,-3.968 -2.74,-0.319 -5.496,-0.038 -8.24,-0.116 -2.86,-0.18 -5.705,0.224 -8.557,0.325 -30.558,2.179 -60.158,15.314 -82.349,36.424 -10.189,9.624 -18.89,20.836 -25.624,33.133 -9.651,17.462 -15.27,37.126 -16.367,57.049 -0.101,2.235 0.031,4.473 0.019,6.712 0.079,4.009 -0.27,8.033 0.195,12.027 0.951,11.882 3.507,23.636 7.553,34.848 7.915,21.933 21.68,41.701 39.454,56.791 21.049,18.009 47.789,29.255 75.4,31.591" /></g><g
           transform="translate(53.6011,72.886)"
           id="g28"><path
             id="path30"
             style="fill:#4749a6;fill-opacity:1;fill-rule:nonzero;stroke:none"
             d="M 0,0 V -3.385 H 2.711 V -4.991 H 0 v -3.394 h 1.917 c 0.846,0 1.457,0.07 1.831,0.207 0.495,0.173 0.872,0.49 1.131,0.95 0.363,0.651 0.544,1.644 0.544,2.98 0,0.949 -0.076,1.682 -0.229,2.197 C 5.042,-1.535 4.817,-1.119 4.521,-0.803 4.224,-0.486 3.837,-0.265 3.359,-0.138 2.991,-0.046 2.257,0 1.157,0 Z m -2.547,2.142 h 4.663 c 1.071,0 1.882,-0.083 2.435,-0.25 C 5.299,1.667 5.938,1.271 6.468,0.704 6.998,0.137 7.396,-0.55 7.664,-1.355 7.932,-2.162 8.065,-3.157 8.065,-4.344 8.065,-5.386 7.917,-6.325 7.621,-7.163 7.324,-8 6.888,-8.698 6.312,-9.257 5.869,-9.677 5.273,-10.008 4.525,-10.25 3.96,-10.429 3.204,-10.518 2.254,-10.518 h -4.801 v 5.527 H -3.86 v 1.606 h 1.313 z" /></g><path
           id="path32"
           style="fill:#4749a6;fill-opacity:1;fill-rule:nonzero;stroke:none"
           d="m 67.616,61.332 h 2.426 v -2.427 h -2.426 z m 2.919,6.045 -1.744,4.697 -1.71,-4.697 z m 4.706,-5.009 H 72.46 l -1.105,2.876 h -5.06 L 65.25,62.368 h -2.711 l 4.93,12.66 h 2.703 z" /><path
           id="path34"
           style="fill:#4749a6;fill-opacity:1;fill-rule:nonzero;stroke:none"
           d="m 76.519,75.028 h 2.556 V 62.369 h -2.556 z" /><g
           transform="translate(86.4327,62.3684)"
           id="g36"><path
             id="path38"
             style="fill:#4749a6;fill-opacity:1;fill-rule:nonzero;stroke:none"
             d="M 0,0 V 12.659 H 2.556 V 7.677 h 5.008 v 4.982 h 2.557 V 0 H 7.564 V 5.535 H 2.556 V 0 Z" /></g><path
           id="path40"
           style="fill:#4749a6;fill-opacity:1;fill-rule:nonzero;stroke:none"
           d="m 103.504,61.332 h 2.426 v -2.427 h -2.426 z m -2.193,7.374 c 0,-1.432 0.331,-2.519 0.993,-3.259 0.662,-0.74 1.503,-1.11 2.522,-1.11 1.018,0 1.855,0.367 2.508,1.102 0.653,0.733 0.98,1.835 0.98,3.302 0,1.451 -0.318,2.534 -0.954,3.247 -0.636,0.713 -1.481,1.071 -2.534,1.071 -1.054,0 -1.903,-0.362 -2.548,-1.084 -0.645,-0.723 -0.967,-1.812 -0.967,-3.269 M 98.677,68.62 c 0,1.289 0.193,2.372 0.579,3.247 0.288,0.645 0.681,1.223 1.179,1.736 0.498,0.512 1.043,0.892 1.636,1.139 0.788,0.334 1.698,0.501 2.729,0.501 1.865,0 3.357,-0.578 4.477,-1.735 1.12,-1.157 1.68,-2.767 1.68,-4.827 0,-2.044 -0.556,-3.643 -1.667,-4.797 -1.111,-1.154 -2.597,-1.731 -4.456,-1.731 -1.882,0 -3.379,0.574 -4.49,1.722 -1.111,1.149 -1.667,2.731 -1.667,4.745" /><g
           transform="translate(121.0513,67.0227)"
           id="g42"><path
             id="path44"
             style="fill:#4749a6;fill-opacity:1;fill-rule:nonzero;stroke:none"
             d="M 0,0 2.478,-0.786 C 2.098,-2.167 1.466,-3.193 0.583,-3.864 -0.301,-4.535 -1.422,-4.87 -2.781,-4.87 c -1.681,0 -3.062,0.574 -4.145,1.723 -1.082,1.148 -1.623,2.718 -1.623,4.71 0,2.107 0.544,3.744 1.632,4.91 1.088,1.165 2.519,1.748 4.292,1.748 1.548,0 2.806,-0.458 3.773,-1.373 C 1.724,6.307 2.156,5.529 2.443,4.517 L -0.086,3.912 c -0.15,0.656 -0.462,1.174 -0.937,1.554 -0.476,0.38 -1.053,0.57 -1.732,0.57 -0.938,0 -1.7,-0.337 -2.284,-1.011 -0.584,-0.672 -0.877,-1.763 -0.877,-3.272 0,-1.601 0.289,-2.74 0.864,-3.419 0.576,-0.68 1.324,-1.02 2.245,-1.02 0.68,0 1.264,0.216 1.753,0.648 C -0.564,-1.606 -0.213,-0.927 0,0" /></g><g
           transform="translate(130.6622,62.3684)"
           id="g46"><path
             id="path48"
             style="fill:#4749a6;fill-opacity:1;fill-rule:nonzero;stroke:none"
             d="M 0,0 V 12.659 H 2.487 L 7.668,4.205 v 8.454 h 2.375 V 0 H 7.478 L 2.375,8.255 V 0 Z" /></g><g
           transform="translate(143.4165,62.3684)"
           id="g50"><path
             id="path52"
             style="fill:#4749a6;fill-opacity:1;fill-rule:nonzero;stroke:none"
             d="M 0,0 V 12.659 H 2.556 V 7.677 h 5.008 v 4.982 h 2.557 V 0 H 7.564 V 5.535 H 2.556 V 0 Z" /></g><g
           transform="translate(162.8887,67.3772)"
           id="g54"><path
             id="path56"
             style="fill:#4749a6;fill-opacity:1;fill-rule:nonzero;stroke:none"
             d="M 0,0 -1.744,4.697 -3.454,0 Z M 4.707,-5.009 H 1.926 L 0.82,-2.133 H -4.24 L -5.285,-5.009 H -7.996 L -3.065,7.65 h 2.703 z" /></g><g
           transform="translate(176.0577,62.3684)"
           id="g58"><path
             id="path60"
             style="fill:#4749a6;fill-opacity:1;fill-rule:nonzero;stroke:none"
             d="m 0,0 v 10.518 h -3.756 v 2.141 H 6.304 V 10.518 H 2.556 V 0 Z" /></g><g
           transform="translate(186.5748,69.674)"
           id="g62"><path
             id="path64"
             style="fill:#4749a6;fill-opacity:1;fill-rule:nonzero;stroke:none"
             d="M 0,0 H 1.892 C 3.118,0 3.883,0.052 4.188,0.155 4.493,0.259 4.732,0.437 4.905,0.69 5.078,0.943 5.164,1.261 5.164,1.641 5.164,2.066 5.05,2.41 4.823,2.672 4.596,2.935 4.275,3.1 3.86,3.169 3.653,3.197 3.031,3.212 1.995,3.212 H 0 Z m -2.556,-7.306 v 12.66 h 5.38 C 4.177,5.354 5.16,5.24 5.773,5.013 6.386,4.785 6.877,4.381 7.245,3.799 7.614,3.218 7.798,2.553 7.798,1.805 7.798,0.854 7.519,0.07 6.96,-0.549 6.402,-1.168 5.567,-1.558 4.456,-1.719 5.009,-2.041 5.465,-2.396 5.825,-2.781 6.185,-3.167 6.669,-3.852 7.28,-4.836 l 1.546,-2.47 H 5.769 L 3.92,-4.551 c -0.656,0.985 -1.105,1.605 -1.346,1.861 -0.242,0.256 -0.498,0.431 -0.769,0.527 -0.271,0.095 -0.7,0.142 -1.286,0.142 H 0 v -5.285 z" /></g><g
           transform="translate(203.4917,67.3772)"
           id="g66"><path
             id="path68"
             style="fill:#4749a6;fill-opacity:1;fill-rule:nonzero;stroke:none"
             d="M 0,0 -1.744,4.697 -3.454,0 Z M 4.707,-5.009 H 1.926 L 0.82,-2.133 H -4.24 L -5.285,-5.009 H -7.996 L -3.065,7.65 h 2.703 z" /></g><g
           transform="translate(209.5796,62.3684)"
           id="g70"><path
             id="path72"
             style="fill:#4749a6;fill-opacity:1;fill-rule:nonzero;stroke:none"
             d="M 0,0 V 12.659 H 2.487 L 7.668,4.205 v 8.454 h 2.375 V 0 H 7.478 L 2.375,8.255 V 0 Z" /></g><g
           transform="translate(228.2144,67.0227)"
           id="g74"><path
             id="path76"
             style="fill:#4749a6;fill-opacity:1;fill-rule:nonzero;stroke:none"
             d="M 0,0 V 2.133 H 5.509 V -2.91 C 4.974,-3.428 4.198,-3.885 3.182,-4.278 2.166,-4.673 1.137,-4.87 0.095,-4.87 c -1.324,0 -2.478,0.277 -3.463,0.833 -0.984,0.556 -1.724,1.35 -2.219,2.384 -0.495,1.033 -0.743,2.157 -0.743,3.372 0,1.318 0.277,2.489 0.83,3.514 0.552,1.025 1.361,1.811 2.426,2.358 0.812,0.42 1.822,0.63 3.031,0.63 1.571,0 2.799,-0.329 3.683,-0.989 C 4.523,6.573 5.092,5.662 5.345,4.499 L 2.807,4.024 C 2.628,4.646 2.293,5.137 1.801,5.496 1.308,5.856 0.694,6.036 -0.043,6.036 -1.16,6.036 -2.048,5.682 -2.707,4.974 -3.366,4.266 -3.696,3.215 -3.696,1.822 c 0,-1.503 0.334,-2.63 1.002,-3.381 0.668,-0.751 1.543,-1.127 2.625,-1.127 0.535,0 1.072,0.106 1.611,0.316 0.538,0.21 1,0.465 1.385,0.764 V 0 Z" /></g><g
           transform="translate(129.9707,39.9758)"
           id="g78"><path
             id="path80"
             style="fill:#4749a6;fill-opacity:1;fill-rule:nonzero;stroke:none"
             d="M 0,0 H -2.195 V 8.273 C -2.998,7.523 -3.943,6.969 -5.031,6.609 v 1.993 c 0.573,0.187 1.195,0.543 1.867,1.066 0.672,0.523 1.133,1.134 1.383,1.832 L 0,11.5 Z" /></g><g
           transform="translate(138.2676,47.4211)"
           id="g82"><path
             id="path84"
             style="fill:#4749a6;fill-opacity:1;fill-rule:nonzero;stroke:none"
             d="m 0,0 c 0,0.708 -0.163,1.258 -0.488,1.648 -0.326,0.391 -0.702,0.586 -1.129,0.586 -0.406,0 -0.744,-0.16 -1.012,-0.48 -0.268,-0.32 -0.402,-0.845 -0.402,-1.574 0,-0.74 0.145,-1.283 0.437,-1.629 0.292,-0.347 0.657,-0.52 1.094,-0.52 0.422,0 0.777,0.167 1.066,0.5 C -0.145,-1.136 0,-0.646 0,0 m -4.969,-4.797 2.125,0.235 c 0.052,-0.433 0.188,-0.753 0.406,-0.961 0.219,-0.208 0.508,-0.313 0.868,-0.313 0.453,0 0.838,0.208 1.156,0.625 0.317,0.417 0.52,1.281 0.609,2.594 -0.552,-0.641 -1.242,-0.961 -2.07,-0.961 -0.901,0 -1.679,0.348 -2.332,1.043 -0.654,0.695 -0.98,1.6 -0.98,2.715 0,1.161 0.344,2.097 1.035,2.808 0.69,0.711 1.569,1.067 2.636,1.067 1.162,0 2.115,-0.45 2.86,-1.348 0.744,-0.898 1.117,-2.376 1.117,-4.434 0,-2.093 -0.388,-3.604 -1.164,-4.531 -0.776,-0.927 -1.787,-1.39 -3.031,-1.39 -0.896,0 -1.62,0.238 -2.172,0.714 -0.552,0.477 -0.906,1.189 -1.063,2.137" /></g><g
           transform="translate(142.1817,42.9211)"
           id="g86"><path
             id="path88"
             style="fill:#4749a6;fill-opacity:1;fill-rule:nonzero;stroke:none"
             d="m 0,0 2.188,0.227 c 0.062,-0.496 0.247,-0.887 0.554,-1.176 0.307,-0.289 0.661,-0.434 1.063,-0.434 0.458,0 0.846,0.187 1.164,0.559 0.317,0.372 0.476,0.933 0.476,1.683 0,0.703 -0.157,1.231 -0.472,1.582 C 4.657,2.793 4.247,2.969 3.742,2.969 3.112,2.969 2.547,2.69 2.047,2.133 L 0.266,2.391 1.391,8.352 H 7.195 V 6.297 H 3.055 L 2.711,4.352 C 3.2,4.597 3.7,4.719 4.211,4.719 5.185,4.719 6.01,4.364 6.687,3.656 7.364,2.948 7.703,2.028 7.703,0.898 7.703,-0.044 7.43,-0.886 6.883,-1.625 6.138,-2.636 5.104,-3.141 3.781,-3.141 2.724,-3.141 1.862,-2.856 1.195,-2.289 0.528,-1.722 0.13,-0.958 0,0" /></g><g
           transform="translate(156.0645,47.4211)"
           id="g90"><path
             id="path92"
             style="fill:#4749a6;fill-opacity:1;fill-rule:nonzero;stroke:none"
             d="m 0,0 c 0,0.708 -0.163,1.258 -0.488,1.648 -0.326,0.391 -0.702,0.586 -1.129,0.586 -0.406,0 -0.744,-0.16 -1.012,-0.48 -0.268,-0.32 -0.402,-0.845 -0.402,-1.574 0,-0.74 0.145,-1.283 0.437,-1.629 0.292,-0.347 0.657,-0.52 1.094,-0.52 0.422,0 0.777,0.167 1.066,0.5 C -0.145,-1.136 0,-0.646 0,0 m -4.969,-4.797 2.125,0.235 c 0.052,-0.433 0.188,-0.753 0.406,-0.961 0.219,-0.208 0.508,-0.313 0.868,-0.313 0.453,0 0.838,0.208 1.156,0.625 0.317,0.417 0.52,1.281 0.609,2.594 -0.552,-0.641 -1.242,-0.961 -2.07,-0.961 -0.901,0 -1.679,0.348 -2.332,1.043 -0.654,0.695 -0.98,1.6 -0.98,2.715 0,1.161 0.344,2.097 1.035,2.808 0.69,0.711 1.569,1.067 2.636,1.067 1.162,0 2.115,-0.45 2.86,-1.348 0.744,-0.898 1.117,-2.376 1.117,-4.434 0,-2.093 -0.388,-3.604 -1.164,-4.531 -0.776,-0.927 -1.787,-1.39 -3.031,-1.39 -0.896,0 -1.62,0.238 -2.172,0.714 -0.552,0.477 -0.906,1.189 -1.063,2.137" /></g><path
           id="path94"
           style="fill:#63bce7;fill-opacity:1;fill-rule:nonzero;stroke:none"
           d="m 92.285,88.934 h -33.1 v 80.043 h 33.1 z" /><path
           id="path96"
           style="fill:#63bce7;fill-opacity:1;fill-rule:nonzero;stroke:none"
           d="m 124.224,88.934 h -23.756 v 105.725 h 23.756 z" /><path
           id="path98"
           style="fill:#63bce7;fill-opacity:1;fill-rule:nonzero;stroke:none"
           d="m 149.646,88.934 h -15.782 v 132.167 h 15.782 z" /><path
           id="path100"
           style="fill:#63bce7;fill-opacity:1;fill-rule:nonzero;stroke:none"
           d="M 183.038,88.934 H 159.192 V 194.31 h 23.846 z" /><path
           id="path102"
           style="fill:#63bce7;fill-opacity:1;fill-rule:nonzero;stroke:none"
           d="m 224.279,88.934 h -33.114 v 79.248 h 33.114 z" /><g
           transform="translate(138.6924,247.4963)"
           id="g104"><path
             id="path106"
             style="fill:#db2325;fill-opacity:1;fill-rule:nonzero;stroke:none"
             d="M 0,0 C 1.071,3.092 1.954,6.248 3.111,9.31 4.013,6.184 5.122,3.122 6.064,0.011 c 3.239,-0.082 6.477,0.064 9.715,-0.086 -2.53,-2.037 -5.301,-3.759 -7.809,-5.821 1.127,-2.991 1.872,-6.113 3.073,-9.078 -2.8,1.539 -5.199,3.736 -7.869,5.492 -0.411,-0.034 -0.718,-0.356 -1.051,-0.562 -2.295,-1.64 -4.515,-3.391 -6.884,-4.926 0.771,3.125 2.043,6.106 2.838,9.223 -2.629,1.869 -5.216,3.8 -7.851,5.661 C -6.518,0.086 -3.256,-0.067 0,0" /></g><g
           transform="translate(76.1983,88.9338)"
           id="g108"><path
             id="path110"
             style="fill:#474aa7;fill-opacity:1;fill-rule:nonzero;stroke:none"
             d="M 0,0 V 53.666 H 6.76 L 32.915,11.531 v 42.135 h 6.318 V 0 H 32.474 L 6.318,42.171 V 0 Z" /></g><g
           transform="translate(139.1753,88.9338)"
           id="g112"><path
             id="path114"
             style="fill:#474aa7;fill-opacity:1;fill-rule:nonzero;stroke:none"
             d="m 0,0 v 47.333 h -16.407 v 6.333 H 23.064 V 47.333 H 6.59 L 6.59,0 Z" /></g><g
           transform="translate(200.6768,142.5998)"
           id="g116"><path
             id="path118"
             style="fill:#474aa7;fill-opacity:1;fill-rule:nonzero;stroke:none"
             d="m 0,0 h 6.59 v -30.486 c 0,-5.304 -0.567,-9.515 -1.699,-12.634 -1.132,-3.12 -3.176,-5.657 -6.131,-7.613 -2.955,-1.956 -6.833,-2.933 -11.634,-2.933 -4.666,0 -8.481,0.852 -11.447,2.555 -2.967,1.704 -5.084,4.17 -6.352,7.397 -1.269,3.227 -1.903,7.636 -1.903,13.228 V 0 h 6.59 v -30.45 c 0,-4.584 0.402,-7.961 1.206,-10.133 0.803,-2.172 2.185,-3.846 4.144,-5.021 1.959,-1.176 4.353,-1.763 7.184,-1.763 4.846,0 8.3,1.163 10.361,3.491 2.06,2.327 3.091,6.803 3.091,13.426 z" /></g></g></g></g></svg>